<?xml version="1.0" standalone="no"?>
<!DOCTYPE svg PUBLIC "-//W3C//DTD SVG 20010904//EN"
 "http://www.w3.org/TR/2001/REC-SVG-20010904/DTD/svg10.dtd">
<svg version="1.0" xmlns="http://www.w3.org/2000/svg"
 width="900.000000pt" height="465.000000pt" viewBox="0 0 900.000000 465.000000"
 preserveAspectRatio="xMidYMid meet">

<g transform="translate(0.000000,465.000000) scale(0.100000,-0.100000)"
fill="#000000" stroke="none">
<path d="M3650 3919 c-453 -56 -859 -322 -1090 -713 -132 -224 -201 -475 -202
-738 0 -71 -3 -128 -7 -128 -5 0 -16 9 -26 20 -36 40 -171 125 -264 165 -126
56 -198 73 -363 87 -130 12 -137 13 -133 33 5 21 65 455 65 468 0 4 156 8 348
9 l347 3 28 55 c16 30 39 72 53 92 13 21 24 40 24 43 0 3 -218 5 -485 5 -267
0 -485 -2 -485 -4 0 -14 -56 -447 -86 -664 -20 -145 -35 -265 -33 -267 2 -2
29 3 59 11 193 50 437 27 601 -56 138 -71 287 -204 367 -329 152 -234 172
-549 53 -815 -77 -171 -229 -332 -390 -415 -153 -78 -188 -86 -396 -86 -162 0
-188 2 -258 24 -42 13 -79 22 -81 20 -2 -2 -21 -39 -44 -82 l-40 -78 26 -11
c193 -75 370 -95 558 -63 474 83 824 447 886 921 l12 91 91 -92 c112 -111 230
-198 366 -268 111 -56 285 -118 384 -136 348 -64 712 -6 1000 157 103 59 245
165 315 236 l54 56 -131 0 c-123 0 -133 -2 -160 -23 -227 -187 -606 -299 -903
-268 -442 47 -813 293 -1020 676 -59 108 -113 266 -135 389 -19 113 -19 318 0
430 71 405 327 751 690 931 220 109 372 141 630 132 182 -6 247 -19 400 -76
118 -44 211 -95 316 -172 l66 -49 129 0 128 0 -54 56 c-197 202 -446 335 -756
404 -105 24 -341 34 -454 19z"/>
<path d="M4340 3006 l0 -316 173 0 c195 0 256 12 299 57 39 42 48 66 48 126 0
54 -18 92 -59 123 -13 10 -11 20 17 74 38 74 40 101 10 160 -40 78 -62 84
-290 89 l-198 3 0 -316z m361 184 c24 -13 25 -58 2 -99 l-18 -31 -110 2 -110
3 0 68 -1 67 109 0 c59 0 117 -5 128 -10z m-1 -255 c60 -31 45 -118 -22 -130
-18 -3 -73 -5 -123 -3 l-90 3 -1 65 c-1 36 1 68 3 73 8 14 202 8 233 -8z"/>
<path d="M4960 3005 l0 -315 60 0 60 0 0 212 c0 125 4 208 9 203 5 -6 20 -37
34 -70 14 -33 40 -95 58 -137 l33 -78 57 0 56 0 40 88 c22 48 50 113 63 145
13 31 27 57 32 57 4 0 8 -94 8 -210 l0 -210 60 0 60 0 0 315 0 316 -82 -3 -81
-3 -59 -135 c-33 -74 -65 -150 -71 -168 -22 -59 -18 -66 -137 213 l-39 90 -80
3 -81 3 0 -316z"/>
<path d="M5660 3311 c0 -5 18 -91 39 -192 21 -101 49 -239 62 -306 l23 -123
81 0 82 0 27 103 c47 181 72 254 79 232 9 -29 78 -286 84 -312 5 -22 10 -23
87 -23 l81 0 28 143 c15 78 43 216 62 307 19 91 34 169 35 173 0 4 -28 7 -62
5 l-63 -3 -17 -90 c-39 -202 -73 -355 -78 -355 -3 0 -24 73 -48 163 -24 89
-45 168 -47 175 -3 8 -26 12 -68 12 l-64 0 -30 -107 c-17 -60 -39 -138 -48
-175 -10 -38 -21 -68 -24 -68 -3 0 -26 98 -49 218 -24 119 -46 220 -49 225 -6
10 -123 9 -123 -2z"/>
<path d="M7004 2011 c-39 -17 -82 -78 -90 -127 -10 -71 1 -178 22 -215 35 -59
66 -74 154 -74 92 0 120 15 157 85 30 57 32 184 4 245 -33 72 -62 90 -149 92
-42 2 -86 -1 -98 -6z m139 -77 c33 -10 49 -61 45 -142 -3 -66 -6 -77 -31 -98
-50 -43 -137 -28 -156 27 -17 48 -14 139 7 179 22 45 64 55 135 34z"/>
<path d="M4340 1805 l0 -205 40 0 40 0 1 138 1 137 26 -55 c15 -30 35 -74 44
-98 16 -41 19 -43 53 -40 36 3 37 4 78 103 l42 100 3 -142 3 -143 39 0 40 0 0
205 0 205 -52 0 -53 0 -47 -107 c-26 -59 -51 -109 -56 -111 -5 -1 -13 10 -17
25 -3 15 -24 65 -45 111 l-39 82 -50 0 -51 0 0 -205z"/>
<path d="M4921 1893 c-65 -182 -101 -284 -101 -289 0 -2 17 -4 39 -4 34 0 40
4 52 33 18 44 24 47 101 47 84 0 95 -4 108 -46 11 -32 14 -34 56 -34 24 0 44
2 44 5 0 5 -24 71 -109 300 l-37 100 -55 3 -56 3 -42 -118z m129 -53 c12 -36
25 -71 27 -77 4 -10 -11 -13 -57 -13 l-62 0 6 28 c13 55 49 143 56 135 4 -4
17 -37 30 -73z"/>
<path d="M5290 1805 l0 -205 40 0 40 0 0 70 0 70 48 0 c45 0 48 -2 70 -42 44
-82 64 -100 110 -96 l42 3 -45 70 c-24 39 -45 75 -45 81 0 6 9 19 21 30 60 54
65 147 10 196 -31 28 -33 28 -161 28 l-130 0 0 -205z m219 124 c38 -13 42 -51
9 -86 -18 -19 -32 -23 -85 -23 l-63 0 0 60 0 60 54 0 c29 0 67 -5 85 -11z"/>
<path d="M5800 1953 c-12 -32 -37 -101 -55 -153 -18 -52 -42 -119 -54 -147
l-21 -53 44 0 c41 0 44 2 59 40 l15 40 75 0 c94 0 103 -4 117 -46 11 -32 14
-34 55 -34 l43 0 -33 93 c-18 50 -51 142 -72 202 l-40 110 -55 3 -55 3 -23
-58z m111 -120 c28 -83 28 -83 -42 -83 -54 0 -60 2 -54 18 4 9 16 42 26 72 32
92 29 87 40 67 6 -9 19 -43 30 -74z"/>
<path d="M6060 1975 l0 -34 68 -3 67 -3 3 -167 2 -168 40 0 40 0 2 168 3 167
68 3 67 3 0 34 0 35 -180 0 -180 0 0 -35z"/>
<path d="M6490 1805 l0 -205 40 0 40 0 0 90 0 91 83 -3 82 -3 3 -87 3 -88 39
0 40 0 0 205 0 205 -40 0 -40 0 0 -75 0 -75 -85 0 -85 0 0 75 0 75 -40 0 -40
0 0 -205z"/>
<path d="M7360 1805 l0 -205 40 0 39 0 3 138 3 137 81 -135 81 -135 47 -3 46
-3 0 205 0 206 -40 0 -40 0 0 -130 c0 -71 -3 -130 -7 -130 -5 0 -20 22 -34 48
-14 26 -48 84 -75 129 l-49 82 -47 1 -48 0 0 -205z"/>
</g>
</svg>
